<?xml version="1.0" encoding="UTF-8" standalone="no"?>
<!DOCTYPE svg PUBLIC "-//W3C//DTD SVG 1.1//EN"
 "http://www.w3.org/Graphics/SVG/1.1/DTD/svg11.dtd">
<!-- Generated by graphviz version 2.40.1 (20161225.0304)
 -->
<!-- Title: %3 Pages: 1 -->
<svg width="850pt" height="548pt"
 viewBox="0.00 0.00 850.00 548.00" xmlns="http://www.w3.org/2000/svg" xmlns:xlink="http://www.w3.org/1999/xlink">
<g id="graph0" class="graph" transform="scale(1 1) rotate(0) translate(4 544)">
<title>%3</title>
<polygon fill="#ffffff" stroke="transparent" points="-4,4 -4,-544 846,-544 846,4 -4,4"/>
<g id="clust1" class="cluster">
<title>clustergroup</title>
<polygon fill="none" stroke="#000000" points="373,-424 373,-476 447,-476 447,-424 373,-424"/>
</g>
<g id="clust3" class="cluster">
<title>clustercondit</title>
<polygon fill="none" stroke="#000000" points="260,-352 260,-404 550,-404 550,-352 260,-352"/>
</g>
<g id="clust5" class="cluster">
<title>clusterwell</title>
<polygon fill="none" stroke="#000000" points="80,-208 80,-260 618,-260 618,-208 80,-208"/>
</g>
<g id="clust7" class="cluster">
<title>clustercell</title>
<polygon fill="none" stroke="#000000" points="8,-64 8,-116 150,-116 150,-64 8,-64"/>
</g>
<!-- group -->
<g id="node1" class="node">
<title>group</title>
<ellipse fill="none" stroke="#000000" cx="331" cy="-522" rx="30.9793" ry="18"/>
<text text-anchor="middle" x="331" y="-517.8" font-family="Times,serif" font-size="14.00" fill="#000000">group</text>
</g>
<!-- condit -->
<g id="node2" class="node">
<title>condit</title>
<ellipse fill="none" stroke="#000000" cx="331" cy="-450" rx="32.4237" ry="18"/>
<text text-anchor="middle" x="331" y="-445.8" font-family="Times,serif" font-size="14.00" fill="#000000">condit</text>
</g>
<!-- group&#45;&gt;condit -->
<g id="edge1" class="edge">
<title>group&#45;&gt;condit</title>
<path fill="none" stroke="#000000" d="M325.0843,-504.2022C324.2945,-496.3271 324.0655,-486.875 324.3971,-478.0852"/>
<polygon fill="#000000" stroke="#000000" points="327.9069,-478.0532 325.0798,-467.8425 320.9224,-477.5876 327.9069,-478.0532"/>
</g>
<!-- gname -->
<g id="node7" class="node">
<title>gname</title>
<ellipse fill="none" stroke="#000000" cx="410" cy="-450" rx="29.0172" ry="18"/>
<text text-anchor="middle" x="410" y="-445.8" font-family="Times,serif" font-size="14.00" fill="#000000">name</text>
</g>
<!-- group&#45;&gt;gname -->
<g id="edge7" class="edge">
<title>group&#45;&gt;gname</title>
<path fill="none" stroke="#000000" d="M347.7539,-506.7307C358.8257,-496.6398 373.5145,-483.2526 385.8426,-472.0169"/>
<polygon fill="#000000" stroke="#000000" points="388.5078,-474.3233 393.5412,-465.0004 383.7926,-469.1497 388.5078,-474.3233"/>
</g>
<!-- condit&#45;&gt;group -->
<g id="edge6" class="edge">
<title>condit&#45;&gt;group</title>
<path fill="none" stroke="#000000" d="M336.9202,-467.8425C337.7078,-475.7236 337.9348,-485.1774 337.601,-493.9647"/>
<polygon fill="#000000" stroke="#000000" points="334.0915,-493.9908 336.9157,-504.2022 341.0759,-494.4583 334.0915,-493.9908"/>
</g>
<!-- well -->
<g id="node3" class="node">
<title>well</title>
<ellipse fill="none" stroke="#000000" cx="231" cy="-306" rx="27" ry="18"/>
<text text-anchor="middle" x="231" y="-301.8" font-family="Times,serif" font-size="14.00" fill="#000000">well</text>
</g>
<!-- condit&#45;&gt;well -->
<g id="edge2" class="edge">
<title>condit&#45;&gt;well</title>
<path fill="none" stroke="#000000" d="M301.7382,-441.9136C283.0748,-434.5589 260.3229,-422.0744 247,-404 231.9178,-383.5389 225.8988,-354.8805 225.1432,-333.8388"/>
<polygon fill="#000000" stroke="#000000" points="228.6444,-333.6354 225.2077,-323.6135 221.6446,-333.5912 228.6444,-333.6354"/>
</g>
<!-- coname -->
<g id="node5" class="node">
<title>coname</title>
<ellipse fill="none" stroke="#000000" cx="513" cy="-378" rx="29.0172" ry="18"/>
<text text-anchor="middle" x="513" y="-373.8" font-family="Times,serif" font-size="14.00" fill="#000000">name</text>
</g>
<!-- condit&#45;&gt;coname -->
<g id="edge8" class="edge">
<title>condit&#45;&gt;coname</title>
<path fill="none" stroke="#000000" d="M349.441,-435.13C355.3891,-430.9687 362.2072,-426.8182 369,-424 413.2825,-405.628 430.7175,-422.372 475,-404 478.904,-402.3803 482.8164,-400.3205 486.5671,-398.0716"/>
<polygon fill="#000000" stroke="#000000" points="488.4876,-400.9977 494.9456,-392.5986 484.6594,-395.1372 488.4876,-400.9977"/>
</g>
<!-- codata -->
<g id="node8" class="node">
<title>codata</title>
<ellipse fill="none" stroke="#000000" cx="439" cy="-378" rx="27" ry="18"/>
<text text-anchor="middle" x="439" y="-373.8" font-family="Times,serif" font-size="14.00" fill="#000000">data</text>
</g>
<!-- condit&#45;&gt;codata -->
<g id="edge9" class="edge">
<title>condit&#45;&gt;codata</title>
<path fill="none" stroke="#000000" d="M351.3391,-435.7074C357.0046,-431.8295 363.1971,-427.6859 369,-424 383.7987,-414.6002 388.3221,-413.5873 403,-404 406.1547,-401.9394 409.417,-399.7179 412.6309,-397.4721"/>
<polygon fill="#000000" stroke="#000000" points="414.8069,-400.2192 420.9177,-391.5642 410.7433,-394.5194 414.8069,-400.2192"/>
</g>
<!-- coSumData -->
<g id="node11" class="node">
<title>coSumData</title>
<ellipse fill="none" stroke="#000000" cx="331" cy="-378" rx="63.3017" ry="18"/>
<text text-anchor="middle" x="331" y="-373.8" font-family="Times,serif" font-size="14.00" fill="#000000">Summary Data</text>
</g>
<!-- condit&#45;&gt;coSumData -->
<g id="edge10" class="edge">
<title>condit&#45;&gt;coSumData</title>
<path fill="none" stroke="#000000" d="M331,-431.8314C331,-424.131 331,-414.9743 331,-406.4166"/>
<polygon fill="#000000" stroke="#000000" points="334.5001,-406.4132 331,-396.4133 327.5001,-406.4133 334.5001,-406.4132"/>
</g>
<!-- well&#45;&gt;condit -->
<g id="edge5" class="edge">
<title>well&#45;&gt;condit</title>
<path fill="none" stroke="#000000" d="M237.9366,-323.6135C242.0758,-344.6404 247.2888,-379.9723 265,-404 273.7389,-415.8555 286.5346,-425.3061 298.6105,-432.4814"/>
<polygon fill="#000000" stroke="#000000" points="297.1899,-435.6972 307.6256,-437.5271 300.6088,-429.5889 297.1899,-435.6972"/>
</g>
<!-- cell -->
<g id="node4" class="node">
<title>cell</title>
<ellipse fill="none" stroke="#000000" cx="51" cy="-162" rx="27" ry="18"/>
<text text-anchor="middle" x="51" y="-157.8" font-family="Times,serif" font-size="14.00" fill="#000000">cell</text>
</g>
<!-- well&#45;&gt;cell -->
<g id="edge3" class="edge">
<title>well&#45;&gt;cell</title>
<path fill="none" stroke="#000000" d="M204.4288,-302.3456C162.7192,-295.4164 85.5846,-279.3185 67,-260 49.0064,-241.2959 43.457,-211.5195 43.7126,-189.6926"/>
<polygon fill="#000000" stroke="#000000" points="47.2075,-189.8805 44.2753,-179.6995 40.2185,-189.4869 47.2075,-189.8805"/>
</g>
<!-- wname -->
<g id="node6" class="node">
<title>wname</title>
<ellipse fill="none" stroke="#000000" cx="581" cy="-234" rx="29.0172" ry="18"/>
<text text-anchor="middle" x="581" y="-229.8" font-family="Times,serif" font-size="14.00" fill="#000000">name</text>
</g>
<!-- well&#45;&gt;wname -->
<g id="edge12" class="edge">
<title>well&#45;&gt;wname</title>
<path fill="none" stroke="#000000" d="M257.6029,-302.4097C330.6324,-292.5095 529.6966,-265.2092 543,-260 547.0194,-258.4261 551.0339,-256.3594 554.8668,-254.0777"/>
<polygon fill="#000000" stroke="#000000" points="556.9467,-256.8994 563.3972,-248.4945 553.1133,-251.0424 556.9467,-256.8994"/>
</g>
<!-- wdata -->
<g id="node10" class="node">
<title>wdata</title>
<ellipse fill="none" stroke="#000000" cx="507" cy="-234" rx="27" ry="18"/>
<text text-anchor="middle" x="507" y="-229.8" font-family="Times,serif" font-size="14.00" fill="#000000">data</text>
</g>
<!-- well&#45;&gt;wdata -->
<g id="edge13" class="edge">
<title>well&#45;&gt;wdata</title>
<path fill="none" stroke="#000000" d="M257.6656,-302.377C311.8078,-294.7798 432.7293,-276.5167 471,-260 474.7162,-258.3962 478.4223,-256.3567 481.966,-254.1277"/>
<polygon fill="#000000" stroke="#000000" points="484.1132,-256.8984 490.3539,-248.3367 480.1361,-251.1379 484.1132,-256.8984"/>
</g>
<!-- wellSumData -->
<g id="node12" class="node">
<title>wellSumData</title>
<ellipse fill="none" stroke="#000000" cx="399" cy="-234" rx="63.3017" ry="18"/>
<text text-anchor="middle" x="399" y="-229.8" font-family="Times,serif" font-size="14.00" fill="#000000">Summary Data</text>
</g>
<!-- well&#45;&gt;wellSumData -->
<g id="edge14" class="edge">
<title>well&#45;&gt;wellSumData</title>
<path fill="none" stroke="#000000" d="M254.0074,-296.1397C279.7717,-285.0978 322.1452,-266.9378 354.4484,-253.0936"/>
<polygon fill="#000000" stroke="#000000" points="355.8818,-256.2872 363.6945,-249.1309 353.1243,-249.8532 355.8818,-256.2872"/>
</g>
<!-- cellcount -->
<g id="node13" class="node">
<title>cellcount</title>
<ellipse fill="none" stroke="#000000" cx="275" cy="-234" rx="42.5369" ry="18"/>
<text text-anchor="middle" x="275" y="-229.8" font-family="Times,serif" font-size="14.00" fill="#000000">cellcount</text>
</g>
<!-- well&#45;&gt;cellcount -->
<g id="edge15" class="edge">
<title>well&#45;&gt;cellcount</title>
<path fill="none" stroke="#000000" d="M241.2051,-289.3008C246.4919,-280.6496 253.0689,-269.8873 259.0119,-260.1623"/>
<polygon fill="#000000" stroke="#000000" points="262.0083,-261.9711 264.2364,-251.6132 256.0353,-258.3209 262.0083,-261.9711"/>
</g>
<!-- csv -->
<g id="node14" class="node">
<title>csv</title>
<ellipse fill="none" stroke="#000000" cx="187" cy="-234" rx="27" ry="18"/>
<text text-anchor="middle" x="187" y="-229.8" font-family="Times,serif" font-size="14.00" fill="#000000">csv</text>
</g>
<!-- well&#45;&gt;csv -->
<g id="edge16" class="edge">
<title>well&#45;&gt;csv</title>
<path fill="none" stroke="#000000" d="M220.7949,-289.3008C215.4304,-280.5224 208.7374,-269.5703 202.7263,-259.7339"/>
<polygon fill="#000000" stroke="#000000" points="205.6563,-257.8164 197.4553,-251.1086 199.6833,-261.4666 205.6563,-257.8164"/>
</g>
<!-- czi -->
<g id="node15" class="node">
<title>czi</title>
<ellipse fill="none" stroke="#000000" cx="115" cy="-234" rx="27" ry="18"/>
<text text-anchor="middle" x="115" y="-229.8" font-family="Times,serif" font-size="14.00" fill="#000000">czi</text>
</g>
<!-- well&#45;&gt;czi -->
<g id="edge17" class="edge">
<title>well&#45;&gt;czi</title>
<path fill="none" stroke="#000000" d="M209.9269,-294.6659C193.5858,-285.6906 170.512,-272.6076 151,-260 147.8351,-257.955 144.5665,-255.7432 141.3492,-253.5028"/>
<polygon fill="#000000" stroke="#000000" points="143.235,-250.549 133.0588,-247.6005 139.1752,-256.2515 143.235,-250.549"/>
</g>
<!-- cell&#45;&gt;well -->
<g id="edge4" class="edge">
<title>cell&#45;&gt;well</title>
<path fill="none" stroke="#000000" d="M56.816,-179.6995C59.9741,-201.4781 64.062,-238.2352 85,-260 100.52,-276.1329 156.8722,-290.0197 194.9727,-298.1964"/>
<polygon fill="#000000" stroke="#000000" points="194.6791,-301.7113 205.1859,-300.3484 196.1224,-294.8617 194.6791,-301.7113"/>
</g>
<!-- cdata -->
<g id="node9" class="node">
<title>cdata</title>
<ellipse fill="none" stroke="#000000" cx="115" cy="-90" rx="27" ry="18"/>
<text text-anchor="middle" x="115" y="-85.8" font-family="Times,serif" font-size="14.00" fill="#000000">data</text>
</g>
<!-- cell&#45;&gt;cdata -->
<g id="edge20" class="edge">
<title>cell&#45;&gt;cdata</title>
<path fill="none" stroke="#000000" d="M64.887,-146.3771C73.5253,-136.659 84.7893,-123.987 94.4497,-113.1191"/>
<polygon fill="#000000" stroke="#000000" points="97.1123,-115.3918 101.1401,-105.5924 91.8804,-110.7413 97.1123,-115.3918"/>
</g>
<!-- id -->
<g id="node16" class="node">
<title>id</title>
<ellipse fill="none" stroke="#000000" cx="43" cy="-90" rx="27" ry="18"/>
<text text-anchor="middle" x="43" y="-85.8" font-family="Times,serif" font-size="14.00" fill="#000000">id</text>
</g>
<!-- cell&#45;&gt;id -->
<g id="edge21" class="edge">
<title>cell&#45;&gt;id</title>
<path fill="none" stroke="#000000" d="M48.9813,-143.8314C48.1257,-136.131 47.1083,-126.9743 46.1574,-118.4166"/>
<polygon fill="#000000" stroke="#000000" points="49.6289,-117.9656 45.0459,-108.4133 42.6717,-118.7386 49.6289,-117.9656"/>
</g>
<!-- codata&#45;&gt;coSumData -->
<g id="edge11" class="edge">
<title>codata&#45;&gt;coSumData</title>
<path fill="none" stroke="#000000" d="M411.6605,-378C409.3642,-378 407.0679,-378 404.7716,-378"/>
<polygon fill="#000000" stroke="#000000" points="404.7032,-374.5001 394.7031,-378 404.7031,-381.5001 404.7032,-374.5001"/>
</g>
<!-- cdata&#45;&gt;codata -->
<g id="edge22" class="edge">
<title>cdata&#45;&gt;codata</title>
<path fill="none" stroke="#000000" d="M141.8731,-91.9281C237.9482,-99.4366 561.8869,-130.2467 622,-208 636.1358,-226.284 633.1974,-239.7826 622,-260 584.6577,-327.4233 538.9428,-308.969 475,-352 471.8739,-354.1037 468.6293,-356.3519 465.4253,-358.6126"/>
<polygon fill="#000000" stroke="#000000" points="463.2438,-355.8698 457.1486,-364.5358 467.3176,-361.5623 463.2438,-355.8698"/>
</g>
<!-- cdata&#45;&gt;wdata -->
<g id="edge23" class="edge">
<title>cdata&#45;&gt;wdata</title>
<path fill="none" stroke="#000000" d="M140.6522,-95.6439C200.708,-109.4565 354.1905,-148.2564 471,-208 474.5285,-209.8047 478.0915,-211.933 481.5329,-214.1821"/>
<polygon fill="#000000" stroke="#000000" points="479.5425,-217.0611 489.748,-219.9066 483.5444,-211.3178 479.5425,-217.0611"/>
</g>
<!-- wdata&#45;&gt;codata -->
<g id="edge18" class="edge">
<title>wdata&#45;&gt;codata</title>
<path fill="none" stroke="#000000" d="M498.7685,-251.4314C487.0096,-276.3326 465.3062,-322.2927 451.5406,-351.4434"/>
<polygon fill="#000000" stroke="#000000" points="448.3076,-350.0932 447.2024,-360.6302 454.6374,-353.0823 448.3076,-350.0932"/>
</g>
<!-- wdata&#45;&gt;wellSumData -->
<g id="edge19" class="edge">
<title>wdata&#45;&gt;wellSumData</title>
<path fill="none" stroke="#000000" d="M479.6605,-234C477.3642,-234 475.0679,-234 472.7716,-234"/>
<polygon fill="#000000" stroke="#000000" points="472.7032,-230.5001 462.7031,-234 472.7031,-237.5001 472.7032,-230.5001"/>
</g>
<!-- 1 -->
<!-- 2 -->
<!-- 1&#45;&gt;2 -->
<g id="edge24" class="edge">
<title>1&#45;&gt;2</title>
<path fill="none" stroke="#ffffff" d="M815,-503.8314C815,-496.131 815,-486.9743 815,-478.4166"/>
<polygon fill="#ffffff" stroke="#ffffff" points="818.5001,-478.4132 815,-468.4133 811.5001,-478.4133 818.5001,-478.4132"/>
</g>
<!-- 3 -->
<!-- 2&#45;&gt;3 -->
<g id="edge25" class="edge">
<title>2&#45;&gt;3</title>
<path fill="none" stroke="#ffffff" d="M815,-431.8314C815,-424.131 815,-414.9743 815,-406.4166"/>
<polygon fill="#ffffff" stroke="#ffffff" points="818.5001,-406.4132 815,-396.4133 811.5001,-406.4133 818.5001,-406.4132"/>
</g>
<!-- 4 -->
<!-- 3&#45;&gt;4 -->
<g id="edge26" class="edge">
<title>3&#45;&gt;4</title>
<path fill="none" stroke="#ffffff" d="M815,-359.8314C815,-352.131 815,-342.9743 815,-334.4166"/>
<polygon fill="#ffffff" stroke="#ffffff" points="818.5001,-334.4132 815,-324.4133 811.5001,-334.4133 818.5001,-334.4132"/>
</g>
<!-- 5 -->
<!-- 4&#45;&gt;5 -->
<g id="edge27" class="edge">
<title>4&#45;&gt;5</title>
<path fill="none" stroke="#ffffff" d="M815,-287.8314C815,-280.131 815,-270.9743 815,-262.4166"/>
<polygon fill="#ffffff" stroke="#ffffff" points="818.5001,-262.4132 815,-252.4133 811.5001,-262.4133 818.5001,-262.4132"/>
</g>
<!-- 6 -->
<!-- 5&#45;&gt;6 -->
<g id="edge28" class="edge">
<title>5&#45;&gt;6</title>
<path fill="none" stroke="#ffffff" d="M815,-215.8314C815,-208.131 815,-198.9743 815,-190.4166"/>
<polygon fill="#ffffff" stroke="#ffffff" points="818.5001,-190.4132 815,-180.4133 811.5001,-190.4133 818.5001,-190.4132"/>
</g>
<!-- 7 -->
<!-- 6&#45;&gt;7 -->
<g id="edge29" class="edge">
<title>6&#45;&gt;7</title>
<path fill="none" stroke="#ffffff" d="M815,-143.8314C815,-136.131 815,-126.9743 815,-118.4166"/>
<polygon fill="#ffffff" stroke="#ffffff" points="818.5001,-118.4132 815,-108.4133 811.5001,-118.4133 818.5001,-118.4132"/>
</g>
<!-- 8 -->
<!-- 7&#45;&gt;8 -->
<g id="edge30" class="edge">
<title>7&#45;&gt;8</title>
<path fill="none" stroke="#ffffff" d="M815,-71.8314C815,-64.131 815,-54.9743 815,-46.4166"/>
<polygon fill="#ffffff" stroke="#ffffff" points="818.5001,-46.4132 815,-36.4133 811.5001,-46.4133 818.5001,-46.4132"/>
</g>
</g>
</svg>
